<svg width="600" height="600" xmlns="http://www.w3.org/2000/svg">

 <clipPath id="imagebot_1">
  <path id="imagebot_2" clip-rule="nonzero" d="M0,0L522,0L522,473L0,473L0,0z"/>
 </clipPath>
 <g>
  <title>Layer 1</title>
  <g transform="translate(2.5 -7.5) matrix(1.54389 0 0 1.54389 -321.487 -175.567)" id="imagebot_263">
   <rect id="imagebot_250" transform="matrix(0.990034 -0.140828 0.140828 0.990034 -53.497 63.2829)" height="44.01601" width="18.02132" y="426.31421" x="408.60915" stroke-opacity="0" stroke-linecap="round" stroke-linejoin="round" stroke-dasharray="null" stroke-width="3" stroke="#000000" fill="#000000"/>
   <path transform="rotate(90.7801 427.158 475.142) matrix(0.667814 -0.0949932 0.0949932 0.667814 392.023 454.634)" d="M 14.4515 46.9427 L 34.1055 46.9427 M 12.7391 47.7389 L 12.7391 46.0242 L 14.4538 46.0242 L 14.4538 47.7389 L 12.7391 47.7389 Z M 14.4515 28.3097 L 34.1055 28.3097 M 12.7391 29.1059 L 12.7391 27.3912 L 14.4538 27.3912 L 14.4538 29.1059 L 12.7391 29.1059 Z M 52.4833 20.7799 L 81.8368 -0.405629 L 81.8368 75.2752 L 52.4833 54.2173 L 52.4833 20.7799 Z M 34.3608 20.7799 L 52.4833 20.7799 L 52.4833 54.2173 L 34.3608 54.2173 L 34.3608 20.7799 Z" id="imagebot_259" stroke-linecap="round" stroke-linejoin="round" stroke-dasharray="null" stroke-width="3" stroke="#000000" fill="#00bfbf"/>
   <g transform="translate(6.25 0) matrix(1 0 0 1 -11.25 -2.5)" id="imagebot_261">
    <rect transform="rotate(11 372.62 448.322) matrix(1 0 0 1 -13.75 0)" id="imagebot_248" height="44.01601" width="18.02132" y="426.31421" x="377.35915" stroke-opacity="0" stroke-linecap="round" stroke-linejoin="round" stroke-dasharray="null" stroke-width="3" stroke="#000000" fill="#000000"/>
    <path id="imagebot_260" transform="rotate(101.065 367.876 474.018) matrix(0.674536 0 0 0.674536 335.979 448.767)" d="M14.4515,46.9427L34.1055,46.9427M12.7391,47.7389L12.7391,46.0242L14.4538,46.0242L14.4538,47.7389L12.7391,47.7389zM14.4515,28.3097L34.1055,28.3097M12.7391,29.1059L12.7391,27.3912L14.4538,27.3912L14.4538,29.1059L12.7391,29.1059zM52.4833,20.7799L81.8368,-0.40563L81.8368,75.2752L52.4833,54.2173L52.4833,20.7799zM34.3608,20.7799L52.4833,20.7799L52.4833,54.2173L34.3608,54.2173L34.3608,20.7799z" stroke-linecap="round" stroke-linejoin="round" stroke-dasharray="null" stroke-width="3" stroke="#000000" fill="#00bfbf"/>
   </g>
   <path transform="rotate(357.143 519.717 330.623) matrix(0.670671 0 0 0.670671 241.557 212.406)" id="imagebot_258" d="M 323.859 176.267 L 368.91 176.267 M 369.031 176.267 A 12.7047 12.0811 198.714 1 1 394.44 176.267 A 12.7047 12.0811 198.714 1 1 369.031 176.267 Z M 505.751 177.728 L 461.457 177.728 L 461.457 140.632 L 396.762 176.15 L 461.423 211.902 L 461.423 177.769 M 510.024 175.521 L 505.691 175.521 L 505.691 179.64 L 510.024 179.64 L 510.024 175.521 Z M 323.81 174.223 L 319.478 174.223 L 319.478 178.343 L 323.81 178.343 L 323.81 174.223 Z" stroke-linecap="round" stroke-linejoin="round" stroke-dasharray="null" stroke-width="3" stroke="#000000" fill="#00bfbf"/>
   <path transform="rotate(18.7135 277.092 313.217) matrix(0.670671 0 0 0.670671 135 195)" d="M 298.296 176.267 L 255.456 176.267 M 255.341 176.267 A 12.0811 12.0811 0 1 1 231.179 176.267 A 12.0811 12.0811 0 1 1 255.341 176.267 Z M 125.331 177.728 L 167.451 177.728 L 167.451 140.632 L 228.971 176.15 L 167.484 211.902 L 167.484 177.769 M 121.268 175.521 L 125.388 175.521 L 125.388 179.64 L 121.268 179.64 L 121.268 175.521 Z M 298.342 174.223 L 302.462 174.223 L 302.462 178.343 L 298.342 178.343 L 298.342 174.223 Z" id="imagebot_256" stroke-linecap="round" stroke-linejoin="round" stroke-dasharray="null" stroke-width="3" stroke="#000000" fill="#00bfbf"/>
   <g transform="rotate(349.967 389.377 223.751) matrix(1 0 0 1 -67.5 -207.5)" id="imagebot_235">
    <rect transform="translate(-3.75 102.5) matrix(1 0 0 1 -10 161.25)" ry="18" rx="18" id="imagebot_229" height="77.5" width="146.25" y="128.75" x="397.5" stroke-linecap="round" stroke-linejoin="round" stroke-width="10" stroke="#00bfbf" fill="#000000"/>
    <g transform="translate(0 101.25)" id="imagebot_234">
     <ellipse ry="13.75" rx="15.625" id="imagebot_230" cy="327" cx="423.125" stroke-linecap="round" stroke-linejoin="round" stroke-width="7" stroke="#00bfbf" fill="#000000"/>
     <ellipse id="imagebot_233" ry="13.75" rx="15.625" cy="327" cx="490.625" stroke-linecap="round" stroke-linejoin="round" stroke-width="7" stroke="#00bfbf" fill="#000000"/>
    </g>
   </g>
   <rect id="imagebot_237" height="125" width="125" y="298.75" x="333.75" fill-opacity="null" stroke-opacity="null" stroke-linecap="round" stroke-linejoin="round" stroke-dasharray="null" stroke-width="7" stroke="#00bfbf" fill="#000000"/>
   <rect id="imagebot_239" height="125" width="125" y="298.75" x="333.75" fill-opacity="null" stroke-opacity="null" stroke-linecap="round" stroke-linejoin="round" stroke-dasharray="null" stroke-width="7" stroke="#00bfbf" fill="#000000"/>
   <rect id="imagebot_240" height="125" width="125" y="298.75" x="333.75" fill-opacity="null" stroke-opacity="null" stroke-linecap="round" stroke-linejoin="round" stroke-dasharray="null" stroke-width="7" stroke="#00bfbf" fill="#000000"/>
   <rect id="imagebot_241" height="33.75" width="83.75" y="323.75" x="353.75" stroke-opacity="null" stroke-linecap="round" stroke-linejoin="round" stroke-dasharray="null" stroke-width="7" stroke="#00bfbf" fill="#00bfbf"/>
   <ellipse ry="3.75" rx="3.75" id="imagebot_242" cy="380" cx="360" stroke-opacity="null" stroke-linecap="round" stroke-linejoin="round" stroke-dasharray="null" stroke-width="7" stroke="#00bfbf" fill="#00bfbf"/>
   <ellipse id="imagebot_243" ry="3.75" rx="3.75" cy="380" cx="360" stroke-opacity="null" stroke-linecap="round" stroke-linejoin="round" stroke-dasharray="null" stroke-width="7" stroke="#00bfbf" fill="#00bfbf"/>
   <ellipse id="imagebot_244" ry="3.75" rx="3.75" cy="380" cx="382.5" stroke-opacity="null" stroke-linecap="round" stroke-linejoin="round" stroke-dasharray="null" stroke-width="7" stroke="#00bfbf" fill="#00bfbf"/>
   <path transform="translate(-1.25 0) matrix(0.668896 0 0 0.668896 160 93.75)" d="M 364.281 248.866 L 333.341 248.866 C 336.758 248.866 339.529 262.275 339.529 278.817 C 339.529 295.358 336.758 308.768 333.341 308.768 L 364.281 308.768 L 364.281 308.768 C 367.698 308.768 370.469 295.358 370.469 278.817 C 370.469 262.275 367.698 248.866 364.281 248.866 Z" id="imagebot_246" stroke-opacity="0" stroke-linecap="round" stroke-linejoin="round" stroke-dasharray="null" stroke-width="3" stroke="#000000" fill="#00bfbf"/>
   <rect id="imagebot_249" height="38.75" width="0" y="457.73281" x="350.08053" stroke-opacity="0" stroke-linecap="round" stroke-linejoin="round" stroke-dasharray="null" stroke-width="3" stroke="#000000" fill="#00bfbf"/>
   <path transform="rotate(347.931 373.319 162.994) matrix(1 0 0 1 -13.75 1.25)" d="M 292.786 183.399 L 332.352 183.399 C 332.352 183.399 311.912 138.487 342.332 137.774 C 370.484 137.114 367.284 183.756 358.372 183.756 C 349.461 183.756 349.818 138.13 372.987 138.13 C 396.156 138.13 399.72 183.756 386.888 183.756 C 374.056 183.756 379.046 138.13 401.859 138.13 C 424.672 138.13 429.305 183.756 415.048 183.756 C 400.79 183.756 408.632 138.13 431.088 138.13 C 453.544 138.13 450.692 183.756 443.207 183.756 C 435.722 183.756 481.347 183.399 481.347 183.399 M 288.288 181.032 L 292.778 181.032 L 292.778 185.522 L 288.288 185.522 L 288.288 181.032 Z M 481.36 181.231 L 485.85 181.231 L 485.85 185.721 L 481.36 185.721 L 481.36 181.231 Z" id="imagebot_255" fill-opacity="0" stroke-linecap="round" stroke-linejoin="round" stroke-dasharray="null" stroke-width="3" stroke="#000000" fill="#000000"/>
  </g>
 </g>
 <metadata>image/svg+xmlOpenclipartBlue Robot2014-02-18T20:33:34A blue robothttps://openclipart.org/detail/191072/blue-robot-by-scout-191072Scoutblue robotcharactercutedollexcitedfuturehappyrobottechnology</metadata>
</svg>